<?xml version="1.0" encoding="UTF-8"?>
<svg xmlns="http://www.w3.org/2000/svg" viewBox="0 0 210 297" width="210" height="297">
  <!-- Background -->
  <rect width="210" height="297" fill="white"/>

  <!-- Template: cascade -->
    <!-- Sidebar -->
    <rect x="0" y="0" width="70" height="297" fill="#2563EB"/>
    <!-- Photo circle -->
    <circle cx="35" cy="40" r="18" fill="#DBEAFE" opacity="0.3"/>
    <circle cx="35" cy="40" r="15" fill="#DBEAFE" opacity="0.2"/>
    <!-- Sidebar text -->
    <rect x="12" y="72" width="46" height="3" rx="1.5" fill="#DBEAFE" opacity="0.5"/>
    <rect x="12" y="81" width="46" height="3" rx="1.5" fill="#DBEAFE" opacity="0.5"/>
    <rect x="12" y="90" width="27.599999999999998" height="3" rx="1.5" fill="#DBEAFE" opacity="0.5"/>
    <!-- Sidebar sections -->
    <rect x="12" y="110" width="30" height="4" rx="2" fill="#DBEAFE" opacity="0.7"/>
    <rect x="12" y="120" width="46" height="3" rx="1.5" fill="#DBEAFE" opacity="0.5"/>
    <rect x="12" y="128" width="46" height="3" rx="1.5" fill="#DBEAFE" opacity="0.5"/>
    <rect x="12" y="136" width="46" height="3" rx="1.5" fill="#DBEAFE" opacity="0.5"/>
    <rect x="12" y="144" width="27.599999999999998" height="3" rx="1.5" fill="#DBEAFE" opacity="0.5"/>
    <rect x="12" y="160" width="26" height="4" rx="2" fill="#DBEAFE" opacity="0.7"/>
    <rect x="12" y="170" width="46" height="3" rx="1.5" fill="#DBEAFE" opacity="0.5"/>
    <rect x="12" y="178" width="46" height="3" rx="1.5" fill="#DBEAFE" opacity="0.5"/>
    <rect x="12" y="186" width="46" height="3" rx="1.5" fill="#DBEAFE" opacity="0.5"/>
    <rect x="12" y="194" width="46" height="3" rx="1.5" fill="#DBEAFE" opacity="0.5"/>
    <rect x="12" y="202" width="27.599999999999998" height="3" rx="1.5" fill="#DBEAFE" opacity="0.5"/>
    <rect x="12" y="220" width="34" height="4" rx="2" fill="#DBEAFE" opacity="0.7"/>
    <rect x="12" y="230" width="46" height="3" rx="1.5" fill="#DBEAFE" opacity="0.5"/>
    <rect x="12" y="238" width="46" height="3" rx="1.5" fill="#DBEAFE" opacity="0.5"/>
    <rect x="12" y="246" width="46" height="3" rx="1.5" fill="#DBEAFE" opacity="0.5"/>
    <rect x="12" y="254" width="27.599999999999998" height="3" rx="1.5" fill="#DBEAFE" opacity="0.5"/>
    <!-- Main content -->
    <rect x="82" y="18" width="60" height="8" rx="2" fill="#1E40AF"/>
    <rect x="82" y="34" width="110" height="3" rx="1.5" fill="#9CA3AF" opacity="0.5"/>
    <rect x="82" y="41" width="66.0" height="3" rx="1.5" fill="#9CA3AF" opacity="0.5"/>
    <rect x="82" y="56" width="45" height="5" rx="2.5" fill="#2563EB" opacity="0.8"/>
    <rect x="82" y="68" width="110" height="3" rx="1.5" fill="#6B7280" opacity="0.5"/>
    <rect x="82" y="76" width="110" height="3" rx="1.5" fill="#6B7280" opacity="0.5"/>
    <rect x="82" y="84" width="110" height="3" rx="1.5" fill="#6B7280" opacity="0.5"/>
    <rect x="82" y="92" width="110" height="3" rx="1.5" fill="#6B7280" opacity="0.5"/>
    <rect x="82" y="100" width="66.0" height="3" rx="1.5" fill="#6B7280" opacity="0.5"/>
    <rect x="82" y="112" width="40" height="5" rx="2.5" fill="#2563EB" opacity="0.8"/>
    <rect x="82" y="124" width="110" height="3" rx="1.5" fill="#6B7280" opacity="0.5"/>
    <rect x="82" y="132" width="110" height="3" rx="1.5" fill="#6B7280" opacity="0.5"/>
    <rect x="82" y="140" width="110" height="3" rx="1.5" fill="#6B7280" opacity="0.5"/>
    <rect x="82" y="148" width="66.0" height="3" rx="1.5" fill="#6B7280" opacity="0.5"/>
    <rect x="82" y="162" width="35" height="5" rx="2.5" fill="#2563EB" opacity="0.8"/>
    <rect x="82" y="174" width="110" height="3" rx="1.5" fill="#6B7280" opacity="0.5"/>
    <rect x="82" y="182" width="110" height="3" rx="1.5" fill="#6B7280" opacity="0.5"/>
    <rect x="82" y="190" width="110" height="3" rx="1.5" fill="#6B7280" opacity="0.5"/>
    <rect x="82" y="198" width="66.0" height="3" rx="1.5" fill="#6B7280" opacity="0.5"/>
    <rect x="82" y="210" width="42" height="5" rx="2.5" fill="#2563EB" opacity="0.8"/>
    <rect x="82" y="222" width="110" height="3" rx="1.5" fill="#6B7280" opacity="0.5"/>
    <rect x="82" y="230" width="110" height="3" rx="1.5" fill="#6B7280" opacity="0.5"/>
    <rect x="82" y="238" width="66.0" height="3" rx="1.5" fill="#6B7280" opacity="0.5"/>

  <!-- Template name label -->
  <rect x="0" y="280" width="210" height="17" fill="white" opacity="0.85"/>
  <text x="105" y="293" font-family="Arial, Helvetica, sans-serif" font-size="7" font-weight="600"
        fill="#2563EB" text-anchor="middle" letter-spacing="1.5">
    CASCADE
  </text>
</svg>