<?xml version="1.0" encoding="UTF-8"?>
<svg xmlns="http://www.w3.org/2000/svg" viewBox="0 0 210 297" width="210" height="297">
  <!-- Background -->
  <rect width="210" height="297" fill="white"/>

  <!-- Template: iconic -->
    <!-- Header -->
    <rect x="18" y="16" width="80" height="9" rx="3" fill="#0D9488"/>
    <rect x="18" y="32" width="140" height="3" rx="1.5" fill="#9CA3AF" opacity="0.5"/>
    <rect x="18" y="39" width="84.0" height="3" rx="1.5" fill="#9CA3AF" opacity="0.5"/>
    <!-- Icon + section pairs -->
    <circle cx="28" cy="62" r="8" fill="#CCFBF1" stroke="#0D9488" stroke-width="0.8"/>
    <rect x="44" y="56" width="40" height="5" rx="2.5" fill="#0D9488" opacity="0.8"/>
    <rect x="44" y="68" width="148" height="3" rx="1.5" fill="#6B7280" opacity="0.5"/>
    <rect x="44" y="76" width="148" height="3" rx="1.5" fill="#6B7280" opacity="0.5"/>
    <rect x="44" y="84" width="148" height="3" rx="1.5" fill="#6B7280" opacity="0.5"/>
    <rect x="44" y="92" width="88.8" height="3" rx="1.5" fill="#6B7280" opacity="0.5"/>
    <circle cx="28" cy="112" r="8" fill="#CCFBF1" stroke="#0D9488" stroke-width="0.8"/>
    <rect x="44" y="106" width="36" height="5" rx="2.5" fill="#0D9488" opacity="0.8"/>
    <rect x="44" y="118" width="148" height="3" rx="1.5" fill="#6B7280" opacity="0.5"/>
    <rect x="44" y="126" width="148" height="3" rx="1.5" fill="#6B7280" opacity="0.5"/>
    <rect x="44" y="134" width="148" height="3" rx="1.5" fill="#6B7280" opacity="0.5"/>
    <rect x="44" y="142" width="88.8" height="3" rx="1.5" fill="#6B7280" opacity="0.5"/>
    <circle cx="28" cy="162" r="8" fill="#CCFBF1" stroke="#0D9488" stroke-width="0.8"/>
    <rect x="44" y="156" width="32" height="5" rx="2.5" fill="#0D9488" opacity="0.8"/>
    <rect x="44" y="168" width="148" height="3" rx="1.5" fill="#6B7280" opacity="0.5"/>
    <rect x="44" y="176" width="148" height="3" rx="1.5" fill="#6B7280" opacity="0.5"/>
    <rect x="44" y="184" width="148" height="3" rx="1.5" fill="#6B7280" opacity="0.5"/>
    <rect x="44" y="192" width="88.8" height="3" rx="1.5" fill="#6B7280" opacity="0.5"/>
    <circle cx="28" cy="212" r="8" fill="#CCFBF1" stroke="#0D9488" stroke-width="0.8"/>
    <rect x="44" y="206" width="38" height="5" rx="2.5" fill="#0D9488" opacity="0.8"/>
    <rect x="44" y="218" width="148" height="3" rx="1.5" fill="#6B7280" opacity="0.5"/>
    <rect x="44" y="226" width="148" height="3" rx="1.5" fill="#6B7280" opacity="0.5"/>
    <rect x="44" y="234" width="88.8" height="3" rx="1.5" fill="#6B7280" opacity="0.5"/>

  <!-- Template name label -->
  <rect x="0" y="280" width="210" height="17" fill="white" opacity="0.85"/>
  <text x="105" y="293" font-family="Arial, Helvetica, sans-serif" font-size="7" font-weight="600"
        fill="#0D9488" text-anchor="middle" letter-spacing="1.5">
    ICONIC
  </text>
</svg>