<?xml version="1.0" encoding="UTF-8"?>
<svg xmlns="http://www.w3.org/2000/svg" viewBox="0 0 210 297" width="210" height="297">
  <!-- Background -->
  <rect width="210" height="297" fill="white"/>

  <!-- Template: muse -->
    <!-- Creative diagonal header -->
    <polygon points="0,0 210,0 210,50 0,70" fill="#EC4899"/>
    <rect x="18" y="14" width="90" height="9" rx="3" fill="white" opacity="0.9"/>
    <rect x="18" y="30" width="78.0" height="3" rx="1.5" fill="white" opacity="0.5"/>
    <!-- Floating card -->
    <rect x="18" y="80" width="174" height="60" rx="6" fill="white" stroke="#EC4899" stroke-width="1"/>
    <rect x="28" y="90" width="45" height="5" rx="2.5" fill="#EC4899" opacity="0.8"/>
    <rect x="28" y="102" width="154" height="3" rx="1.5" fill="#6B7280" opacity="0.5"/>
    <rect x="28" y="110" width="154" height="3" rx="1.5" fill="#6B7280" opacity="0.5"/>
    <rect x="28" y="118" width="154" height="3" rx="1.5" fill="#6B7280" opacity="0.5"/>
    <rect x="28" y="126" width="92.39999999999999" height="3" rx="1.5" fill="#6B7280" opacity="0.5"/>
    <rect x="18" y="150" width="174" height="60" rx="6" fill="white" stroke="#EC4899" stroke-width="1"/>
    <rect x="28" y="160" width="40" height="5" rx="2.5" fill="#EC4899" opacity="0.8"/>
    <rect x="28" y="172" width="154" height="3" rx="1.5" fill="#6B7280" opacity="0.5"/>
    <rect x="28" y="180" width="154" height="3" rx="1.5" fill="#6B7280" opacity="0.5"/>
    <rect x="28" y="188" width="154" height="3" rx="1.5" fill="#6B7280" opacity="0.5"/>
    <rect x="28" y="196" width="92.39999999999999" height="3" rx="1.5" fill="#6B7280" opacity="0.5"/>
    <rect x="18" y="220" width="174" height="50" rx="6" fill="white" stroke="#EC4899" stroke-width="1"/>
    <rect x="28" y="230" width="36" height="5" rx="2.5" fill="#EC4899" opacity="0.8"/>
    <rect x="28" y="242" width="154" height="3" rx="1.5" fill="#6B7280" opacity="0.5"/>
    <rect x="28" y="250" width="154" height="3" rx="1.5" fill="#6B7280" opacity="0.5"/>
    <rect x="28" y="258" width="92.39999999999999" height="3" rx="1.5" fill="#6B7280" opacity="0.5"/>

  <!-- Template name label -->
  <rect x="0" y="280" width="210" height="17" fill="white" opacity="0.85"/>
  <text x="105" y="293" font-family="Arial, Helvetica, sans-serif" font-size="7" font-weight="600"
        fill="#EC4899" text-anchor="middle" letter-spacing="1.5">
    MUSE
  </text>
</svg>